<mxfile host="app.diagrams.net" modified="2024-07-11T09:39:20.366Z" agent="Mozilla/5.0 (Windows NT 10.0; Win64; x64; rv:109.0) Gecko/20100101 Firefox/115.0" etag="lhbCg3dqGowVxfL9J1t2" version="24.6.4" type="github">
  <diagram name="Seite-1" id="648JwqbHt4ekxYwXeddu">
    <mxGraphModel dx="1042" dy="727" grid="1" gridSize="10" guides="1" tooltips="1" connect="1" arrows="1" fold="1" page="1" pageScale="1" pageWidth="827" pageHeight="1169" math="0" shadow="0">
      <root>
        <mxCell id="0" />
        <mxCell id="1" parent="0" />
        <mxCell id="SG_8wOSAw9EmdWuPO4M6-6" value="" style="edgeStyle=orthogonalEdgeStyle;rounded=0;orthogonalLoop=1;jettySize=auto;html=1;" edge="1" parent="1" source="SG_8wOSAw9EmdWuPO4M6-1" target="SG_8wOSAw9EmdWuPO4M6-5">
          <mxGeometry relative="1" as="geometry" />
        </mxCell>
        <mxCell id="SG_8wOSAw9EmdWuPO4M6-8" style="edgeStyle=orthogonalEdgeStyle;rounded=0;orthogonalLoop=1;jettySize=auto;html=1;exitX=0.25;exitY=1;exitDx=0;exitDy=0;entryX=0.5;entryY=0;entryDx=0;entryDy=0;dashed=1;" edge="1" parent="1" source="SG_8wOSAw9EmdWuPO4M6-1" target="SG_8wOSAw9EmdWuPO4M6-7">
          <mxGeometry relative="1" as="geometry" />
        </mxCell>
        <mxCell id="SG_8wOSAw9EmdWuPO4M6-1" value="FROST-Server" style="rounded=0;whiteSpace=wrap;html=1;" vertex="1" parent="1">
          <mxGeometry x="470" y="360" width="160" height="120" as="geometry" />
        </mxCell>
        <mxCell id="SG_8wOSAw9EmdWuPO4M6-11" style="edgeStyle=orthogonalEdgeStyle;rounded=0;orthogonalLoop=1;jettySize=auto;html=1;exitX=1;exitY=0.5;exitDx=0;exitDy=0;entryX=0;entryY=0.5;entryDx=0;entryDy=0;" edge="1" parent="1" source="SG_8wOSAw9EmdWuPO4M6-2" target="SG_8wOSAw9EmdWuPO4M6-22">
          <mxGeometry relative="1" as="geometry" />
        </mxCell>
        <mxCell id="SG_8wOSAw9EmdWuPO4M6-2" value="DataSource" style="rounded=0;whiteSpace=wrap;html=1;" vertex="1" parent="1">
          <mxGeometry x="30" y="70" width="120" height="60" as="geometry" />
        </mxCell>
        <mxCell id="SG_8wOSAw9EmdWuPO4M6-3" value="DataSource" style="rounded=0;whiteSpace=wrap;html=1;" vertex="1" parent="1">
          <mxGeometry x="30" y="150" width="120" height="60" as="geometry" />
        </mxCell>
        <mxCell id="SG_8wOSAw9EmdWuPO4M6-20" style="edgeStyle=orthogonalEdgeStyle;rounded=0;orthogonalLoop=1;jettySize=auto;html=1;exitX=1;exitY=0.5;exitDx=0;exitDy=0;entryX=0;entryY=0.5;entryDx=0;entryDy=0;" edge="1" parent="1" source="SG_8wOSAw9EmdWuPO4M6-4" target="SG_8wOSAw9EmdWuPO4M6-22">
          <mxGeometry relative="1" as="geometry">
            <mxPoint x="180" y="170" as="targetPoint" />
          </mxGeometry>
        </mxCell>
        <mxCell id="SG_8wOSAw9EmdWuPO4M6-4" value="DataSource" style="rounded=0;whiteSpace=wrap;html=1;" vertex="1" parent="1">
          <mxGeometry x="30" y="230" width="120" height="60" as="geometry" />
        </mxCell>
        <mxCell id="SG_8wOSAw9EmdWuPO4M6-5" value="Dashboard" style="rounded=0;whiteSpace=wrap;html=1;" vertex="1" parent="1">
          <mxGeometry x="490" y="610" width="120" height="60" as="geometry" />
        </mxCell>
        <mxCell id="SG_8wOSAw9EmdWuPO4M6-9" value="" style="edgeStyle=orthogonalEdgeStyle;rounded=0;orthogonalLoop=1;jettySize=auto;html=1;dashed=1;" edge="1" parent="1" source="SG_8wOSAw9EmdWuPO4M6-7" target="SG_8wOSAw9EmdWuPO4M6-5">
          <mxGeometry relative="1" as="geometry" />
        </mxCell>
        <mxCell id="SG_8wOSAw9EmdWuPO4M6-7" value="MaschineLearnig" style="rounded=0;whiteSpace=wrap;html=1;" vertex="1" parent="1">
          <mxGeometry x="270" y="610" width="120" height="60" as="geometry" />
        </mxCell>
        <mxCell id="SG_8wOSAw9EmdWuPO4M6-10" value="DataProcessing" style="rounded=0;whiteSpace=wrap;html=1;" vertex="1" parent="1">
          <mxGeometry x="310" y="390" width="120" height="60" as="geometry" />
        </mxCell>
        <mxCell id="SG_8wOSAw9EmdWuPO4M6-14" style="edgeStyle=orthogonalEdgeStyle;rounded=0;orthogonalLoop=1;jettySize=auto;html=1;exitX=1;exitY=0.5;exitDx=0;exitDy=0;entryX=0;entryY=0.5;entryDx=0;entryDy=0;" edge="1" parent="1" source="SG_8wOSAw9EmdWuPO4M6-10" target="SG_8wOSAw9EmdWuPO4M6-1">
          <mxGeometry relative="1" as="geometry" />
        </mxCell>
        <mxCell id="SG_8wOSAw9EmdWuPO4M6-17" style="edgeStyle=orthogonalEdgeStyle;rounded=0;orthogonalLoop=1;jettySize=auto;html=1;exitX=0.5;exitY=1;exitDx=0;exitDy=0;exitPerimeter=0;startArrow=classic;startFill=1;" edge="1" parent="1" source="SG_8wOSAw9EmdWuPO4M6-15" target="SG_8wOSAw9EmdWuPO4M6-1">
          <mxGeometry relative="1" as="geometry" />
        </mxCell>
        <mxCell id="SG_8wOSAw9EmdWuPO4M6-15" value="Postgre (TimeScale)" style="shape=cylinder3;whiteSpace=wrap;html=1;boundedLbl=1;backgroundOutline=1;size=15;" vertex="1" parent="1">
          <mxGeometry x="500" y="200" width="100" height="100" as="geometry" />
        </mxCell>
        <mxCell id="SG_8wOSAw9EmdWuPO4M6-21" style="edgeStyle=orthogonalEdgeStyle;rounded=0;orthogonalLoop=1;jettySize=auto;html=1;exitX=0.5;exitY=1;exitDx=0;exitDy=0;exitPerimeter=0;entryX=0.5;entryY=0;entryDx=0;entryDy=0;" edge="1" parent="1" source="SG_8wOSAw9EmdWuPO4M6-18" target="SG_8wOSAw9EmdWuPO4M6-10">
          <mxGeometry relative="1" as="geometry" />
        </mxCell>
        <mxCell id="SG_8wOSAw9EmdWuPO4M6-18" value="DataStorage (RawData)" style="shape=cylinder3;whiteSpace=wrap;html=1;boundedLbl=1;backgroundOutline=1;size=15;" vertex="1" parent="1">
          <mxGeometry x="320" y="200" width="100" height="100" as="geometry" />
        </mxCell>
        <mxCell id="SG_8wOSAw9EmdWuPO4M6-19" style="edgeStyle=orthogonalEdgeStyle;rounded=0;orthogonalLoop=1;jettySize=auto;html=1;exitX=1;exitY=0.5;exitDx=0;exitDy=0;entryX=0;entryY=0.5;entryDx=0;entryDy=0;" edge="1" parent="1" source="SG_8wOSAw9EmdWuPO4M6-3" target="SG_8wOSAw9EmdWuPO4M6-22">
          <mxGeometry relative="1" as="geometry" />
        </mxCell>
        <mxCell id="SG_8wOSAw9EmdWuPO4M6-22" value="Data Collector" style="rounded=0;whiteSpace=wrap;html=1;" vertex="1" parent="1">
          <mxGeometry x="310" y="70" width="120" height="60" as="geometry" />
        </mxCell>
        <mxCell id="SG_8wOSAw9EmdWuPO4M6-23" style="edgeStyle=orthogonalEdgeStyle;rounded=0;orthogonalLoop=1;jettySize=auto;html=1;exitX=0.5;exitY=1;exitDx=0;exitDy=0;entryX=0.5;entryY=0;entryDx=0;entryDy=0;entryPerimeter=0;" edge="1" parent="1" source="SG_8wOSAw9EmdWuPO4M6-22" target="SG_8wOSAw9EmdWuPO4M6-18">
          <mxGeometry relative="1" as="geometry" />
        </mxCell>
      </root>
    </mxGraphModel>
  </diagram>
</mxfile>
